<svg xmlns="http://www.w3.org/2000/svg" version="1.1" xmlns:xlink="http://www.w3.org/1999/xlink" xmlns:svgjs="http://svgjs.com/svgjs" width="512" height="512" x="0" y="0" viewBox="0 0 512 512" style="enable-background:new 0 0 512 512" xml:space="preserve"><g><linearGradient id="SVGID_1_" gradientUnits="userSpaceOnUse" x1="175" x2="175" y1="512" y2="62"><stop offset="0" stop-color="#addcff"></stop><stop offset=".5028" stop-color="#eaf6ff"></stop><stop offset="1" stop-color="#eaf6ff"></stop></linearGradient><linearGradient id="SVGID_00000075861877367979067760000006188658437321108384_" gradientUnits="userSpaceOnUse" x1="278.5" x2="278.5" y1="512" y2="0"><stop offset="0" stop-color="#5558ff"></stop><stop offset="1" stop-color="#00c0ff"></stop></linearGradient><g><path d="m241.97 497v-200c0-12.718 14.833-19.665 24.603-11.523l83.427 69.523v-97.17l-1.397 1.239c-4.831 4.284-11.861 4.996-17.453 1.768l-43.3-25c-5.591-3.228-8.49-9.672-7.195-15.998l4.068-19.881c-5.251-7.071-9.66-14.726-13.176-22.875l-19.29-6.43c-6.125-2.042-10.257-7.774-10.257-14.23v-50c0-6.457 4.132-12.189 10.257-14.23l19.289-6.429c3.517-8.15 7.926-15.805 13.176-22.876l-.181-.888h-269.541c-8.284 0-15 6.716-15 15v420c0 8.284 6.716 15 15 15h241.97c-8.284 0-15-6.716-15-15z" fill="url(#SVGID_1_)" data-original="url(#SVGID_1_)"></path><path d="m180 137h-120c-8.284 0-15-6.716-15-15s6.716-15 15-15h120c8.284 0 15 6.716 15 15s-6.716 15-15 15zm15 45c0-8.284-6.716-15-15-15h-120c-8.284 0-15 6.716-15 15s6.716 15 15 15h120c8.284 0 15-6.716 15-15zm317-75.576v50c0 6.456-4.131 12.188-10.257 14.23l-19.289 6.43c-3.517 8.149-7.925 15.803-13.177 22.875l4.069 19.881c1.295 6.325-1.604 12.77-7.195 15.998l-43.301 25c-5.592 3.228-12.622 2.516-17.452-1.768l-15.177-13.458c-8.995 1.091-17.445 1.091-26.442 0l-15.176 13.458c-4.831 4.284-11.861 4.996-17.453 1.768l-43.3-25c-5.591-3.228-8.49-9.672-7.195-15.998l4.068-19.881c-5.251-7.071-9.66-14.726-13.176-22.875l-19.29-6.43c-6.125-2.042-10.257-7.774-10.257-14.23v-50c0-6.457 4.132-12.189 10.257-14.23l19.289-6.429c3.517-8.15 7.926-15.805 13.176-22.876l-4.068-19.881c-1.294-6.325 1.604-12.769 7.195-15.998l43.301-25c5.592-3.228 12.621-2.516 17.452 1.767l15.177 13.459c9.002-1.09 17.44-1.09 26.441 0l15.177-13.458c4.831-4.284 11.861-4.996 17.452-1.768l43.301 25c5.592 3.228 8.49 9.672 7.195 15.998l-4.069 19.881c5.252 7.072 9.66 14.726 13.177 22.876l19.289 6.429c6.126 2.041 10.258 7.773 10.258 14.23zm-85 25c0-27.614-22.385-50-50-50s-50 22.386-50 50c0 27.615 22.385 50 50 50s50-22.386 50-50zm79.573 354.053-240-200c-9.77-8.142-24.603-1.194-24.603 11.523v200c0 8.284 6.716 15 15 15h240c14.03 0 20.381-17.542 9.603-26.523z" fill="url(#SVGID_00000075861877367979067760000006188658437321108384_)" data-original="url(#SVGID_00000075861877367979067760000006188658437321108384_)"></path></g></g></svg>