<svg id="Capa_1" enable-background="new 0 0 512 512" height="512" viewBox="0 0 512 512" width="512" xmlns="http://www.w3.org/2000/svg" xmlns:xlink="http://www.w3.org/1999/xlink"><linearGradient id="SVGID_1_" gradientUnits="userSpaceOnUse" x1="256" x2="256" y1="512" y2="0"><stop offset="0" stop-color="#addcff"/><stop offset=".5028" stop-color="#eaf6ff"/><stop offset="1" stop-color="#eaf6ff"/></linearGradient><linearGradient id="SVGID_2_" gradientUnits="userSpaceOnUse" x1="256" x2="256" y1="407" y2="105"><stop offset="0" stop-color="#00c0ff"/><stop offset="1" stop-color="#5558ff"/></linearGradient><g><g><circle cx="256" cy="256" fill="url(#SVGID_1_)" r="256"/></g><g><g><path d="m327.059 389.235h-26.647v-35.529h-88.823v35.529h-26.647c-4.909 0-8.882 3.973-8.882 8.882s3.973 8.882 8.882 8.882h142.118c4.909 0 8.882-3.973 8.882-8.882s-3.974-8.882-8.883-8.882zm-71.059-124.353c-4.892 0-8.882 3.981-8.882 8.882s3.99 8.882 8.882 8.882 8.882-3.981 8.882-8.882-3.99-8.882-8.882-8.882zm124.353-159.882h-248.706c-14.694 0-26.647 11.953-26.647 26.647v177.647c0 14.694 11.953 26.647 26.647 26.647h248.706c14.694 0 26.647-11.953 26.647-26.647v-177.647c0-14.694-11.953-26.647-26.647-26.647zm-124.353 195.412c-14.694 0-26.647-11.953-26.647-26.647s11.953-26.647 26.647-26.647 26.647 11.953 26.647 26.647-11.953 26.647-26.647 26.647zm43.961-58.048c-3.469 3.47-9.09 3.47-12.56 0-17.313-17.313-45.487-17.313-62.801 0-3.47 3.47-9.091 3.47-12.56 0s-3.47-9.091 0-12.561c24.253-24.235 63.668-24.235 87.921 0 3.469 3.47 3.469 9.092 0 12.561zm25.12-25.129c-3.469 3.469-9.09 3.47-12.56 0-31.158-31.158-81.884-31.158-113.042 0-3.47 3.469-9.09 3.469-12.56 0-3.47-3.47-3.47-9.091 0-12.561 38.097-38.097 100.065-38.097 138.162 0 3.47 3.471 3.47 9.092 0 12.561zm25.138-25.12c-3.469 3.47-9.09 3.47-12.56 0-45.036-45.019-118.281-45.019-163.317 0-3.47 3.47-9.091 3.47-12.56 0-3.47-3.47-3.47-9.09 0-12.56 51.941-51.958 136.497-51.958 188.438 0 3.468 3.469 3.468 9.09-.001 12.56z" fill="url(#SVGID_2_)"/></g></g></g></svg>